# xmcd CD database file
#
# Track frame offsets:
#	150
#	18397
#	39653
#	62453
#	85239
#	105966
#	123797
#	144750
#	166390
#	185759
#	204771
#	223510
#	247610
#	269326
#	289861
#
# Disc length: 4145 seconds
#
# Revision: 2
# Processed by: cddbd v1.5.1PL0 Copyright (c) Steve Scherf et al.
# Submitted via: CDex 1.50
#
DISCID=c2102f0f
DTITLE=NEw Chinese music - Snow
DYEAR=1900
DGENRE=Ethnic
TTITLE0=Sentiment in Snow
TTITLE1=Is There Snowing on Yours
TTITLE2=Love is blood
TTITLE3=Winter Rain
TTITLE4=The Happy old home
TTITLE5=Recollection on the snow
TTITLE6=went without saing
TTITLE7=i wish
TTITLE8=find my true self
TTITLE9=dating of heart a
TTITLE10=a torch in winter
TTITLE11=wolf
TTITLE12=promise of love
TTITLE13=someting ring a bell
TTITLE14=it's difficult to say love you
EXTD=
EXTT0=
EXTT1=
EXTT2=
EXTT3=
EXTT4=
EXTT5=
EXTT6=
EXTT7=
EXTT8=
EXTT9=
EXTT10=
EXTT11=
EXTT12=
EXTT13=
EXTT14=
PLAYORDER=
